<svg id="svg" version="1.1" xmlns="http://www.w3.org/2000/svg" xmlns:xlink="http://www.w3.org/1999/xlink" width="400" height="400" viewBox="0, 0, 400,400"><g id="svgg"><path id="path0" d="M0.000 200.000 L 0.000 400.000 200.000 400.000 L 400.000 400.000 400.000 200.000 L 400.000 0.000 200.000 0.000 L 0.000 0.000 0.000 200.000 M236.150 84.188 C 238.536 85.663,240.755 88.468,240.518 89.709 C 240.424 90.200,240.498 90.508,240.681 90.395 C 240.865 90.281,241.016 103.459,241.016 119.727 C 241.016 137.294,240.872 149.176,240.661 149.046 C 240.467 148.926,240.406 149.206,240.528 149.670 C 240.692 150.298,240.617 150.432,240.236 150.196 C 239.901 149.989,239.817 150.032,239.995 150.319 C 240.293 150.802,239.335 152.911,238.614 153.356 C 238.313 153.542,238.267 153.464,238.477 153.125 C 238.687 152.784,238.640 152.708,238.335 152.896 C 238.084 153.052,237.975 153.336,238.093 153.528 C 238.415 154.049,235.278 155.990,234.560 155.714 C 234.204 155.578,234.045 155.641,234.182 155.864 C 234.338 156.115,229.717 156.250,220.921 156.250 L 207.422 156.250 207.422 172.063 L 207.422 187.876 256.543 187.981 C 303.131 188.081,307.381 188.181,306.773 189.164 C 306.624 189.406,306.708 189.458,306.978 189.291 C 307.581 188.918,310.237 190.569,309.903 191.109 C 309.760 191.340,309.827 191.414,310.052 191.276 C 310.558 190.963,311.428 191.946,311.032 192.384 C 310.872 192.560,310.952 192.583,311.208 192.436 C 311.791 192.102,313.842 195.477,313.538 196.269 C 313.421 196.574,313.535 196.894,313.791 196.980 C 314.143 197.097,314.275 201.880,314.327 216.439 L 314.396 235.742 323.897 235.981 C 334.681 236.253,334.102 236.212,333.812 236.682 C 333.691 236.877,333.972 236.937,334.436 236.816 C 335.063 236.652,335.198 236.726,334.962 237.108 C 334.748 237.454,334.797 237.527,335.113 237.332 C 335.747 236.940,338.077 238.771,339.304 240.625 L 340.296 242.124 340.351 268.425 L 340.407 294.727 340.618 269.922 L 340.829 245.117 340.922 269.775 C 341.012 293.599,340.917 297.102,340.191 296.653 C 340.005 296.538,339.952 296.702,340.073 297.018 C 340.355 297.753,339.109 299.684,338.569 299.350 C 338.340 299.209,338.276 299.285,338.423 299.522 C 338.663 299.911,338.052 300.566,337.435 300.580 C 337.292 300.583,337.028 300.746,336.849 300.942 C 336.655 301.153,336.760 301.163,337.109 300.964 C 337.619 300.674,337.624 300.719,337.144 301.310 C 336.841 301.683,336.349 301.895,336.050 301.780 C 335.708 301.649,335.610 301.740,335.786 302.024 C 335.974 302.329,335.847 302.393,335.395 302.219 C 335.027 302.078,334.821 302.117,334.938 302.307 C 335.241 302.797,334.029 303.186,333.050 302.913 C 332.393 302.730,332.345 302.766,332.813 303.093 C 333.224 303.382,325.433 303.505,306.601 303.510 C 280.494 303.515,276.906 303.367,277.560 302.310 C 277.678 302.119,277.473 302.078,277.105 302.219 C 276.614 302.408,276.520 302.338,276.754 301.959 C 276.971 301.608,276.923 301.535,276.606 301.731 C 276.074 302.060,274.905 301.252,275.206 300.764 C 275.315 300.588,275.198 300.317,274.946 300.162 C 274.643 299.974,274.585 300.064,274.774 300.428 C 274.931 300.730,274.696 300.563,274.251 300.057 C 273.806 299.551,273.556 298.953,273.695 298.727 C 273.835 298.501,273.764 298.431,273.539 298.570 C 273.047 298.874,272.546 297.759,272.911 297.170 C 273.073 296.907,272.979 296.871,272.655 297.071 C 272.273 297.307,272.199 297.173,272.363 296.545 C 272.484 296.081,272.424 295.801,272.229 295.921 C 271.838 296.163,271.731 244.912,272.120 243.461 C 272.249 242.980,272.508 242.682,272.696 242.798 C 272.884 242.914,272.922 242.708,272.781 242.339 C 272.592 241.848,272.662 241.754,273.041 241.988 C 273.392 242.205,273.465 242.158,273.269 241.841 C 272.864 241.185,275.712 237.780,276.433 238.057 C 276.742 238.176,276.898 238.117,276.780 237.927 C 276.506 237.483,277.674 237.026,278.221 237.364 C 278.451 237.506,278.523 237.438,278.383 237.211 C 277.865 236.372,279.732 236.172,289.453 236.024 L 299.414 235.872 299.308 219.303 L 299.202 202.734 253.312 202.734 L 207.422 202.734 207.422 219.727 C 207.422 231.426,207.551 236.719,207.836 236.719 C 208.063 236.719,208.141 236.543,208.008 236.328 C 207.850 236.073,210.525 235.938,215.743 235.938 C 224.002 235.938,227.475 236.190,227.119 236.766 C 227.006 236.950,227.169 237.002,227.484 236.881 C 228.302 236.567,230.557 237.814,230.224 238.396 C 230.075 238.655,230.100 238.734,230.279 238.571 C 230.685 238.202,232.477 239.829,232.185 240.301 C 232.069 240.490,232.206 240.596,232.490 240.537 C 232.777 240.478,232.984 240.733,232.954 241.109 C 232.924 241.495,233.079 241.678,233.314 241.533 C 233.573 241.373,233.631 241.527,233.469 241.948 C 233.325 242.325,233.372 242.520,233.577 242.393 C 234.596 241.763,234.758 245.882,234.670 270.117 L 234.579 295.117 234.369 270.117 L 234.158 245.117 234.169 270.959 C 234.175 286.272,234.036 296.712,233.826 296.582 C 233.632 296.462,233.589 296.551,233.730 296.779 C 234.094 297.369,233.594 298.484,233.102 298.180 C 232.853 298.026,232.809 298.116,232.990 298.409 C 233.380 299.040,231.570 300.937,229.297 302.281 L 227.539 303.320 200.781 303.439 C 174.546 303.555,170.631 303.408,171.298 302.329 C 171.423 302.127,171.284 302.054,170.990 302.167 C 170.251 302.451,166.696 299.264,166.966 298.560 C 167.083 298.256,167.017 298.106,166.821 298.228 C 166.356 298.515,165.879 297.021,166.246 296.428 C 166.409 296.164,166.358 296.078,166.124 296.222 C 165.330 296.713,165.235 293.743,165.266 269.580 C 165.297 245.144,165.482 241.457,166.665 241.684 C 166.902 241.729,167.072 241.466,167.044 241.098 C 167.015 240.730,167.225 240.478,167.510 240.537 C 167.794 240.596,167.931 240.490,167.815 240.301 C 167.529 239.839,169.314 238.194,169.690 238.571 C 169.854 238.734,169.928 238.604,169.857 238.281 C 169.777 237.922,169.989 237.716,170.406 237.749 C 170.780 237.778,170.997 237.659,170.889 237.484 C 170.620 237.049,172.149 236.600,172.713 236.949 C 172.975 237.111,173.063 237.061,172.921 236.831 C 172.523 236.188,175.681 235.938,184.202 235.938 C 190.173 235.938,192.171 236.058,192.319 236.426 C 192.428 236.694,192.530 229.224,192.547 219.824 L 192.578 202.734 146.484 202.734 L 100.391 202.734 100.391 219.297 L 100.391 235.861 110.449 236.005 C 120.714 236.153,123.999 236.666,123.178 237.994 C 123.028 238.237,123.116 238.285,123.394 238.113 C 123.926 237.784,125.095 238.592,124.794 239.080 C 124.685 239.255,124.802 239.526,125.054 239.682 C 125.357 239.869,125.415 239.780,125.226 239.416 C 125.069 239.114,125.304 239.281,125.749 239.787 C 126.194 240.293,126.444 240.891,126.305 241.117 C 126.155 241.359,126.239 241.411,126.510 241.243 C 126.803 241.062,127.179 241.461,127.547 242.342 C 128.220 243.952,128.438 296.724,127.771 296.312 C 127.576 296.191,127.498 296.404,127.598 296.785 C 128.045 298.497,122.733 303.371,120.813 303.010 C 120.336 302.921,120.038 302.998,120.152 303.181 C 120.266 303.365,108.307 303.516,93.555 303.516 C 73.393 303.516,66.820 303.404,67.029 303.065 C 67.203 302.784,67.137 302.720,66.854 302.895 C 66.261 303.261,64.767 302.784,65.054 302.320 C 65.176 302.123,64.974 302.078,64.605 302.219 C 64.153 302.393,64.026 302.329,64.214 302.024 C 64.389 301.740,64.292 301.649,63.953 301.779 C 63.220 302.060,60.023 298.568,60.315 297.805 C 60.457 297.435,60.376 297.325,60.090 297.502 C 59.786 297.690,59.713 297.509,59.863 296.936 C 59.984 296.472,59.945 296.178,59.777 296.282 C 59.095 296.704,58.984 293.032,58.984 269.922 C 58.984 246.070,59.084 243.133,59.874 243.621 C 60.108 243.766,60.159 243.680,59.996 243.416 C 59.647 242.852,60.096 241.323,60.531 241.592 C 60.706 241.700,60.825 241.483,60.796 241.109 C 60.763 240.692,60.969 240.480,61.328 240.560 C 61.650 240.632,61.781 240.557,61.618 240.394 C 61.215 239.991,62.903 238.243,63.398 238.549 C 63.616 238.683,63.673 238.599,63.526 238.361 C 63.196 237.827,64.695 236.971,65.303 237.347 C 65.557 237.504,65.639 237.448,65.494 237.214 C 65.013 236.435,67.054 236.217,76.466 236.042 L 85.941 235.866 85.925 217.640 C 85.916 207.616,85.916 198.745,85.923 197.926 C 85.932 197.048,86.096 196.536,86.324 196.677 C 86.540 196.811,86.613 196.664,86.491 196.345 C 86.067 195.240,89.113 190.759,89.940 191.270 C 90.177 191.417,90.241 191.343,90.090 191.098 C 89.741 190.534,93.178 188.519,93.970 188.823 C 94.301 188.950,94.478 188.901,94.363 188.715 C 93.899 187.965,98.427 187.891,144.580 187.891 L 192.578 187.891 192.578 172.070 L 192.578 156.250 179.079 156.250 C 170.283 156.250,165.662 156.115,165.818 155.864 C 165.951 155.648,165.805 155.574,165.485 155.697 C 164.122 156.220,160.638 153.201,159.521 150.529 C 158.483 148.044,158.754 90.565,159.815 88.375 C 160.792 86.357,164.231 83.444,165.305 83.725 C 165.696 83.828,165.926 83.764,165.814 83.584 C 165.430 82.963,167.891 82.919,201.007 82.963 L 234.241 83.008 236.150 84.188 M183.916 83.496 C 193.009 83.554,207.775 83.554,216.728 83.496 C 225.682 83.437,218.242 83.390,200.195 83.390 C 182.148 83.390,174.823 83.438,183.916 83.496 M81.738 236.608 C 82.329 236.697,83.296 236.697,83.887 236.608 C 84.478 236.518,83.994 236.445,82.813 236.445 C 81.631 236.445,81.147 236.518,81.738 236.608 M59.518 249.414 C 59.519 251.563,59.584 252.392,59.663 251.256 C 59.743 250.121,59.742 248.363,59.662 247.350 C 59.581 246.337,59.517 247.266,59.518 249.414 M59.516 257.031 C 59.516 259.072,59.582 259.907,59.662 258.887 C 59.743 257.866,59.743 256.196,59.662 255.176 C 59.582 254.155,59.516 254.990,59.516 257.031 M59.554 277.734 C 59.554 287.080,59.605 290.903,59.668 286.230 C 59.730 281.558,59.730 273.911,59.668 269.238 C 59.605 264.565,59.554 268.389,59.554 277.734 " stroke="none" fill="#238bf4" fill-rule="evenodd"></path><path id="path1" d="M164.844 84.408 C 159.275 86.932,159.570 84.955,159.570 119.727 C 159.570 159.105,157.723 155.837,179.985 155.851 L 193.368 155.859 193.266 172.168 L 193.164 188.477 144.336 188.578 C 88.868 188.694,93.161 188.429,89.632 191.958 C 86.262 195.328,86.328 194.821,86.328 217.257 L 86.328 236.719 77.321 236.719 C 65.073 236.719,61.790 237.966,60.241 243.209 C 59.607 245.353,59.562 294.367,60.191 296.633 C 60.817 298.889,63.847 301.743,66.429 302.510 C 68.886 303.239,117.775 303.446,120.326 302.737 C 122.723 302.071,125.251 300.182,126.431 298.175 L 127.539 296.289 127.648 270.785 C 127.776 240.659,127.824 240.985,122.770 238.014 L 120.898 236.914 110.449 236.793 L 100.000 236.672 100.000 219.508 L 100.000 202.344 146.680 202.344 L 193.359 202.344 193.359 219.531 L 193.359 236.719 183.962 236.719 C 172.605 236.719,171.698 236.893,168.907 239.616 C 165.916 242.534,166.020 241.445,166.020 269.922 C 166.020 298.107,165.941 297.228,168.734 300.022 C 171.926 303.213,171.042 303.125,200.000 303.125 C 228.021 303.125,227.762 303.146,230.744 300.594 C 234.153 297.676,233.985 299.256,233.982 270.287 C 233.980 241.410,234.086 242.536,231.093 239.616 C 228.302 236.893,227.395 236.719,216.038 236.719 L 206.641 236.719 206.641 219.531 L 206.641 202.344 253.320 202.344 L 300.000 202.344 300.000 219.508 L 300.000 236.672 289.551 236.793 L 279.102 236.914 277.307 237.969 C 272.235 240.951,272.266 240.756,272.266 269.913 C 272.266 297.772,272.214 297.234,275.185 300.206 C 278.164 303.185,277.531 303.125,306.250 303.125 C 334.372 303.125,334.001 303.156,337.082 300.519 C 340.380 297.696,340.216 299.289,340.226 270.007 C 340.235 241.876,340.311 242.921,338.051 239.959 C 335.894 237.131,334.979 236.928,323.730 236.792 L 313.672 236.671 313.672 217.430 C 313.672 195.011,313.709 195.299,310.404 191.994 C 306.829 188.419,311.189 188.691,255.664 188.577 L 206.836 188.477 206.734 172.187 L 206.632 155.897 220.406 155.780 C 236.032 155.648,236.072 155.641,238.564 152.391 C 240.668 149.645,240.653 149.905,240.537 118.867 L 240.430 90.039 239.562 88.417 C 238.509 86.447,236.226 84.493,234.375 83.979 C 231.275 83.116,166.815 83.514,164.844 84.408 " stroke="none" fill="#fbfbfb" fill-rule="evenodd"></path><path id="path2" d="M240.810 119.727 C 240.810 135.625,240.859 142.072,240.918 134.053 C 240.977 126.034,240.977 113.027,240.918 105.147 C 240.859 97.267,240.810 103.828,240.810 119.727 M159.146 103.711 C 159.146 107.578,159.205 109.107,159.276 107.109 C 159.347 105.111,159.346 101.947,159.275 100.078 C 159.203 98.209,159.145 99.844,159.146 103.711 M159.160 125.000 C 159.160 132.412,159.213 135.444,159.277 131.738 C 159.341 128.032,159.341 121.968,159.277 118.262 C 159.213 114.556,159.160 117.588,159.160 125.000 M159.123 141.992 C 159.122 143.926,159.188 144.766,159.270 143.859 C 159.352 142.953,159.353 141.371,159.272 140.344 C 159.191 139.317,159.124 140.059,159.123 141.992 M159.091 147.656 C 159.091 148.623,159.167 149.019,159.260 148.535 C 159.353 148.052,159.353 147.261,159.260 146.777 C 159.167 146.294,159.091 146.689,159.091 147.656 M167.094 156.136 C 167.580 156.229,168.283 156.226,168.657 156.128 C 169.030 156.030,168.633 155.954,167.773 155.958 C 166.914 155.962,166.608 156.042,167.094 156.136 M174.707 156.129 C 175.083 156.227,175.698 156.227,176.074 156.129 C 176.450 156.030,176.143 155.950,175.391 155.950 C 174.639 155.950,174.331 156.030,174.707 156.129 M180.957 156.139 C 181.548 156.229,182.515 156.229,183.105 156.139 C 183.696 156.050,183.213 155.976,182.031 155.976 C 180.850 155.976,180.366 156.050,180.957 156.139 M189.941 156.149 L 192.578 156.286 192.578 172.087 L 192.578 187.888 144.629 187.988 L 96.680 188.089 144.824 188.185 L 192.969 188.281 192.969 172.070 L 192.969 155.859 190.137 155.936 L 187.305 156.012 189.941 156.149 M207.031 172.070 L 207.031 188.281 255.176 188.185 L 303.320 188.089 255.371 187.988 L 207.422 187.888 207.422 172.092 L 207.422 156.297 208.887 156.144 L 210.352 155.991 208.691 155.925 L 207.031 155.859 207.031 172.070 M101.081 202.627 C 101.783 202.714,102.838 202.712,103.425 202.623 C 104.012 202.534,103.438 202.463,102.148 202.465 C 100.859 202.467,100.379 202.540,101.081 202.627 M107.537 202.634 C 109.212 202.708,111.849 202.707,113.397 202.633 C 114.945 202.559,113.574 202.499,110.352 202.500 C 107.129 202.501,105.863 202.561,107.537 202.634 M118.275 202.632 C 119.410 202.711,121.168 202.711,122.181 202.630 C 123.194 202.550,122.266 202.485,120.117 202.486 C 117.969 202.487,117.140 202.553,118.275 202.632 M126.480 202.633 C 127.831 202.710,129.941 202.709,131.168 202.632 C 132.395 202.555,131.289 202.492,128.711 202.493 C 126.133 202.494,125.129 202.557,126.480 202.633 M136.816 202.624 C 137.407 202.713,138.374 202.713,138.965 202.624 C 139.556 202.534,139.072 202.461,137.891 202.461 C 136.709 202.461,136.226 202.534,136.816 202.624 M142.100 202.630 C 143.019 202.713,144.425 202.712,145.225 202.628 C 146.025 202.544,145.273 202.476,143.555 202.478 C 141.836 202.479,141.181 202.548,142.100 202.630 M148.926 202.613 C 149.302 202.711,149.917 202.711,150.293 202.613 C 150.669 202.515,150.361 202.434,149.609 202.434 C 148.857 202.434,148.550 202.515,148.926 202.613 M151.860 202.620 C 152.346 202.713,153.049 202.710,153.423 202.612 C 153.796 202.514,153.398 202.438,152.539 202.442 C 151.680 202.447,151.374 202.527,151.860 202.620 M156.938 202.620 C 157.424 202.713,158.127 202.710,158.501 202.612 C 158.874 202.514,158.477 202.438,157.617 202.442 C 156.758 202.447,156.452 202.527,156.938 202.620 M160.645 202.628 C 161.450 202.713,162.769 202.713,163.574 202.628 C 164.380 202.544,163.721 202.475,162.109 202.475 C 160.498 202.475,159.839 202.544,160.645 202.628 M167.485 202.620 C 167.971 202.713,168.674 202.710,169.048 202.612 C 169.421 202.514,169.023 202.438,168.164 202.442 C 167.305 202.447,166.999 202.527,167.485 202.620 M172.559 202.619 C 173.042 202.713,173.833 202.713,174.316 202.619 C 174.800 202.526,174.404 202.450,173.438 202.450 C 172.471 202.450,172.075 202.526,172.559 202.619 M177.647 202.630 C 178.566 202.713,179.972 202.712,180.772 202.628 C 181.572 202.544,180.820 202.476,179.102 202.478 C 177.383 202.479,176.728 202.548,177.647 202.630 M183.897 202.630 C 184.816 202.713,186.222 202.712,187.022 202.628 C 187.822 202.544,187.070 202.476,185.352 202.478 C 183.633 202.479,182.978 202.548,183.897 202.630 M190.523 202.632 L 192.570 202.775 192.676 219.844 L 192.782 236.914 192.875 219.629 L 192.969 202.344 190.723 202.416 L 188.477 202.488 190.523 202.632 M207.125 219.629 L 207.218 236.914 207.324 219.835 L 207.430 202.756 212.992 202.636 L 218.555 202.516 212.793 202.430 L 207.031 202.344 207.125 219.629 M223.340 202.630 C 224.253 202.712,225.747 202.712,226.660 202.630 C 227.573 202.548,226.826 202.480,225.000 202.480 C 223.174 202.480,222.427 202.548,223.340 202.630 M234.106 202.636 C 237.288 202.702,242.386 202.702,245.434 202.636 C 248.482 202.570,245.879 202.516,239.648 202.516 C 233.418 202.516,230.924 202.570,234.106 202.636 M253.223 202.624 C 253.813 202.713,254.780 202.713,255.371 202.624 C 255.962 202.534,255.479 202.461,254.297 202.461 C 253.115 202.461,252.632 202.534,253.223 202.624 M259.473 202.634 C 261.138 202.707,263.862 202.707,265.527 202.634 C 267.192 202.561,265.830 202.501,262.500 202.501 C 259.170 202.501,257.808 202.561,259.473 202.634 M272.363 202.632 C 273.599 202.710,275.620 202.710,276.855 202.632 C 278.091 202.555,277.080 202.491,274.609 202.491 C 272.139 202.491,271.128 202.555,272.363 202.632 M281.348 202.632 C 282.583 202.710,284.604 202.710,285.840 202.632 C 287.075 202.555,286.064 202.491,283.594 202.491 C 281.123 202.491,280.112 202.555,281.348 202.632 M291.906 202.631 C 292.933 202.712,294.515 202.711,295.422 202.629 C 296.329 202.547,295.488 202.481,293.555 202.482 C 291.621 202.484,290.879 202.551,291.906 202.631 M297.954 202.620 C 298.440 202.713,299.143 202.710,299.516 202.612 C 299.890 202.514,299.492 202.438,298.633 202.442 C 297.773 202.447,297.468 202.527,297.954 202.620 M100.148 207.422 C 100.148 209.893,100.211 210.903,100.289 209.668 C 100.366 208.433,100.366 206.411,100.289 205.176 C 100.211 203.940,100.148 204.951,100.148 207.422 M100.139 219.727 C 100.137 221.660,100.204 222.500,100.285 221.594 C 100.367 220.687,100.368 219.105,100.288 218.078 C 100.207 217.051,100.140 217.793,100.139 219.727 M100.128 227.930 C 100.130 229.434,100.201 230.001,100.285 229.191 C 100.370 228.380,100.368 227.150,100.282 226.456 C 100.196 225.763,100.126 226.426,100.128 227.930 M100.106 232.813 C 100.106 233.779,100.183 234.175,100.276 233.691 C 100.369 233.208,100.369 232.417,100.276 231.934 C 100.183 231.450,100.106 231.846,100.106 232.813 M272.059 270.117 C 272.059 284.297,272.108 290.041,272.168 282.882 C 272.227 275.723,272.227 264.121,272.168 257.100 C 272.108 250.080,272.059 255.938,272.059 270.117 M127.846 286.133 C 127.849 287.207,127.925 287.600,128.015 287.006 C 128.104 286.413,128.102 285.534,128.009 285.053 C 127.917 284.573,127.843 285.059,127.846 286.133 M80.176 303.418 C 87.427 303.477,99.292 303.477,106.543 303.418 C 113.794 303.358,107.861 303.310,93.359 303.310 C 78.857 303.310,72.925 303.358,80.176 303.418 M186.816 303.418 C 194.067 303.477,205.933 303.477,213.184 303.418 C 220.435 303.358,214.502 303.310,200.000 303.310 C 185.498 303.310,179.565 303.358,186.816 303.418 M293.486 303.418 C 300.752 303.477,312.529 303.477,319.657 303.418 C 326.785 303.358,320.840 303.309,306.445 303.309 C 292.051 303.310,286.219 303.358,293.486 303.418 " stroke="none" fill="#0469f4" fill-rule="evenodd"></path><path id="path3" d="M167.322 83.111 C 167.074 83.269,181.779 83.398,200.000 83.398 C 218.221 83.398,233.047 83.267,232.947 83.105 C 232.713 82.726,167.918 82.732,167.322 83.111 M165.137 83.472 C 164.761 83.571,164.453 83.820,164.453 84.027 C 164.453 84.243,164.826 84.209,165.332 83.945 C 166.797 83.183,166.743 83.053,165.137 83.472 M161.328 86.133 C 160.824 86.670,160.520 87.109,160.654 87.109 C 160.788 87.109,161.371 86.670,161.951 86.133 C 162.531 85.596,162.834 85.156,162.625 85.156 C 162.416 85.156,161.833 85.596,161.328 86.133 M238.693 86.523 C 238.698 87.040,239.787 88.468,240.008 88.247 C 240.103 88.152,239.845 87.637,239.435 87.104 C 239.025 86.570,238.691 86.309,238.693 86.523 M159.116 94.141 C 159.116 95.752,159.185 96.411,159.269 95.605 C 159.353 94.800,159.353 93.481,159.269 92.676 C 159.185 91.870,159.116 92.529,159.116 94.141 M161.523 153.453 C 162.861 154.939,164.063 155.715,164.063 155.092 C 164.063 154.869,163.813 154.688,163.509 154.688 C 163.205 154.688,162.897 154.556,162.824 154.395 C 162.752 154.233,162.166 153.663,161.522 153.126 L 160.352 152.151 161.523 153.453 M237.891 153.516 C 237.139 154.149,236.710 154.671,236.939 154.677 C 237.167 154.683,237.859 154.160,238.477 153.516 C 239.898 152.032,239.653 152.032,237.891 153.516 M164.453 155.432 C 164.453 155.756,166.056 156.340,166.293 156.103 C 166.357 156.039,165.969 155.786,165.431 155.541 C 164.893 155.295,164.453 155.246,164.453 155.432 M221.782 156.136 C 222.268 156.229,222.971 156.226,223.344 156.128 C 223.718 156.030,223.320 155.954,222.461 155.958 C 221.602 155.962,221.296 156.042,221.782 156.136 M229.004 156.129 C 229.380 156.227,229.995 156.227,230.371 156.129 C 230.747 156.030,230.439 155.950,229.688 155.950 C 228.936 155.950,228.628 156.030,229.004 156.129 M305.469 188.672 C 305.791 188.880,306.318 189.051,306.641 189.051 C 307.161 189.051,307.161 189.008,306.641 188.672 C 306.318 188.464,305.791 188.293,305.469 188.293 C 304.948 188.293,304.948 188.335,305.469 188.672 M307.422 189.162 C 307.422 189.241,307.949 189.696,308.594 190.173 C 309.238 190.649,309.766 190.896,309.766 190.721 C 309.766 190.546,309.238 190.091,308.594 189.711 C 307.949 189.330,307.422 189.083,307.422 189.162 M312.514 193.803 C 312.506 193.939,312.757 194.642,313.071 195.365 C 313.385 196.088,313.642 196.416,313.643 196.094 C 313.644 195.531,312.542 193.295,312.514 193.803 M313.679 217.480 L 313.700 236.577 323.336 236.662 C 328.635 236.709,332.834 236.609,332.665 236.440 C 332.496 236.271,328.312 236.045,323.366 235.938 L 314.374 235.742 314.369 217.281 C 314.366 206.718,314.213 198.726,314.011 198.601 C 313.803 198.472,313.667 206.205,313.679 217.480 M85.852 203.027 C 86.020 208.832,86.229 209.365,86.236 204.004 C 86.240 201.372,86.130 199.219,85.992 199.218 C 85.855 199.218,85.792 200.932,85.852 203.027 M170.020 202.613 C 170.396 202.711,171.011 202.711,171.387 202.613 C 171.763 202.515,171.455 202.434,170.703 202.434 C 169.951 202.434,169.644 202.515,170.020 202.613 M299.308 219.336 L 299.414 235.938 290.972 235.938 C 282.239 235.937,278.906 236.174,278.906 236.795 C 278.906 236.993,279.051 237.066,279.227 236.957 C 279.404 236.848,284.150 236.727,289.774 236.689 L 300.000 236.619 300.000 219.677 C 300.000 208.408,299.866 202.734,299.601 202.734 C 299.334 202.734,299.237 208.231,299.308 219.336 M85.879 211.455 C 85.804 212.384,85.853 213.659,85.989 214.287 C 86.148 215.026,86.252 214.429,86.282 212.598 C 86.333 209.478,86.094 208.801,85.879 211.455 M86.069 218.359 C 86.069 219.971,86.138 220.630,86.222 219.824 C 86.306 219.019,86.306 217.700,86.222 216.895 C 86.138 216.089,86.069 216.748,86.069 218.359 M85.840 222.861 C 85.736 223.403,85.804 223.941,85.990 224.056 C 86.176 224.171,86.328 223.727,86.328 223.070 C 86.328 221.620,86.096 221.520,85.840 222.861 M85.938 230.469 L 85.938 235.938 77.367 235.938 C 72.506 235.938,68.699 236.095,68.572 236.301 C 68.435 236.521,71.863 236.636,77.301 236.594 L 86.256 236.523 86.308 230.762 C 86.337 227.593,86.265 225.000,86.149 225.000 C 86.033 225.000,85.938 227.461,85.938 230.469 M100.122 235.355 L 100.152 236.531 110.135 236.566 C 115.625 236.585,119.678 236.469,119.141 236.308 C 118.604 236.147,114.177 235.998,109.305 235.976 L 100.445 235.938 100.269 235.059 C 100.147 234.447,100.102 234.537,100.122 235.355 M174.645 236.298 C 174.313 236.508,177.685 236.651,183.141 236.657 C 188.507 236.664,192.188 236.520,192.188 236.303 C 192.188 235.831,175.390 235.826,174.645 236.298 M207.962 236.253 C 208.069 236.427,212.518 236.585,217.848 236.603 C 223.954 236.625,226.961 236.516,225.977 236.310 C 223.961 235.888,207.704 235.837,207.962 236.253 M334.984 237.292 C 335.401 237.608,335.918 237.866,336.133 237.866 C 336.348 237.866,336.182 237.608,335.765 237.292 C 335.348 236.977,334.831 236.719,334.616 236.719 C 334.401 236.719,334.567 236.977,334.984 237.292 M228.906 237.444 C 228.906 237.846,230.089 238.400,230.363 238.127 C 230.458 238.032,230.169 237.758,229.721 237.518 C 229.273 237.278,228.906 237.245,228.906 237.444 M62.861 238.543 L 61.914 239.586 62.976 238.836 C 63.560 238.423,64.043 237.954,64.050 237.793 C 64.070 237.312,63.856 237.447,62.861 238.543 M123.828 238.043 C 123.828 238.207,124.355 238.869,125.000 239.513 C 125.645 240.158,126.172 240.529,126.172 240.338 C 126.172 240.146,125.645 239.485,125.000 238.867 C 124.355 238.250,123.828 237.879,123.828 238.043 M274.487 239.526 C 273.724 240.446,273.175 241.274,273.268 241.367 C 273.361 241.460,273.481 241.461,273.535 241.369 C 273.589 241.278,274.236 240.548,274.973 239.748 C 275.711 238.948,276.215 238.194,276.095 238.074 C 275.974 237.953,275.251 238.607,274.487 239.526 M336.719 237.995 C 336.719 238.352,338.724 240.312,338.905 240.132 C 338.987 240.050,338.529 239.479,337.887 238.863 C 337.244 238.248,336.719 237.857,336.719 237.995 M61.037 240.332 C 60.825 240.601,60.442 241.260,60.187 241.797 C 59.647 242.933,60.625 241.884,61.370 240.527 C 61.805 239.736,61.603 239.618,61.037 240.332 M232.385 240.556 C 232.622 241.000,233.009 241.482,233.244 241.627 C 233.550 241.816,233.549 241.662,233.240 241.085 C 233.003 240.641,232.616 240.159,232.381 240.014 C 232.075 239.824,232.076 239.978,232.385 240.556 M126.581 241.211 C 126.571 241.791,127.269 242.783,127.514 242.538 C 127.631 242.421,127.470 241.987,127.157 241.573 C 126.844 241.159,126.584 240.996,126.581 241.211 M165.485 244.434 C 165.087 246.839,165.193 294.850,165.597 295.100 C 165.818 295.237,165.975 285.264,166.000 269.480 C 166.022 255.266,166.133 243.486,166.246 243.303 C 166.360 243.119,166.289 242.969,166.090 242.969 C 165.890 242.969,165.618 243.628,165.485 244.434 M340.139 243.945 C 340.241 244.482,340.393 244.922,340.475 244.922 C 340.558 244.922,340.625 244.482,340.625 243.945 C 340.625 243.408,340.474 242.969,340.289 242.969 C 340.103 242.969,340.036 243.408,340.139 243.945 M234.279 262.635 C 234.333 272.766,234.425 284.219,234.483 288.086 C 234.542 291.953,234.629 283.746,234.677 269.847 C 234.726 255.949,234.634 244.496,234.473 244.396 C 234.312 244.296,234.224 252.504,234.279 262.635 M59.014 269.824 C 59.038 289.765,59.151 295.038,59.577 296.289 L 60.110 297.852 59.840 296.289 C 59.692 295.430,59.570 283.520,59.570 269.824 C 59.570 256.128,59.438 244.922,59.277 244.922 C 59.116 244.922,58.998 256.128,59.014 269.824 M127.875 248.828 C 127.875 250.869,127.941 251.704,128.021 250.684 C 128.102 249.663,128.102 247.993,128.021 246.973 C 127.941 245.952,127.875 246.787,127.875 248.828 M340.720 269.792 C 340.668 283.364,340.511 294.789,340.372 295.183 C 340.186 295.710,340.238 295.789,340.570 295.485 C 340.904 295.179,340.995 288.594,340.918 270.095 L 340.814 245.117 340.720 269.792 M127.833 254.102 C 127.837 254.961,127.917 255.267,128.011 254.781 C 128.104 254.295,128.101 253.592,128.003 253.218 C 127.905 252.845,127.829 253.242,127.833 254.102 M127.833 257.227 C 127.837 258.086,127.917 258.392,128.011 257.906 C 128.104 257.420,128.101 256.717,128.003 256.343 C 127.905 255.970,127.829 256.367,127.833 257.227 M127.825 260.156 C 127.825 260.908,127.905 261.216,128.004 260.840 C 128.102 260.464,128.102 259.849,128.004 259.473 C 127.905 259.097,127.825 259.404,127.825 260.156 M127.833 269.727 C 127.837 270.586,127.917 270.892,128.011 270.406 C 128.104 269.920,128.101 269.217,128.003 268.843 C 127.905 268.470,127.829 268.867,127.833 269.727 M127.868 277.539 C 127.870 279.258,127.938 279.912,128.021 278.994 C 128.103 278.075,128.102 276.669,128.018 275.869 C 127.934 275.069,127.867 275.820,127.868 277.539 M127.846 282.617 C 127.849 283.691,127.925 284.084,128.015 283.491 C 128.104 282.897,128.102 282.018,128.009 281.538 C 127.917 281.057,127.843 281.543,127.846 282.617 M127.855 292.383 C 127.858 293.672,127.931 294.152,128.017 293.450 C 128.104 292.748,128.103 291.693,128.013 291.106 C 127.924 290.519,127.853 291.094,127.855 292.383 M166.720 298.633 C 167.138 299.448,168.776 301.036,170.117 301.924 C 170.547 302.208,170.371 301.969,169.727 301.391 C 169.082 300.814,168.052 299.781,167.438 299.096 C 166.823 298.412,166.500 298.203,166.720 298.633 M61.328 299.805 C 61.833 300.342,62.307 300.781,62.382 300.781 C 62.457 300.781,62.230 300.342,61.878 299.805 C 61.526 299.268,61.052 298.828,60.824 298.828 C 60.597 298.828,60.824 299.268,61.328 299.805 M337.582 300.294 C 335.785 302.204,336.238 302.283,338.093 300.383 C 338.928 299.528,339.444 298.850,339.239 298.878 C 339.035 298.905,338.289 299.542,337.582 300.294 M124.780 300.441 C 123.961 301.314,123.858 301.548,124.418 301.259 C 125.397 300.754,126.817 299.219,126.305 299.219 C 126.098 299.219,125.411 299.769,124.780 300.441 M273.828 299.506 C 273.828 299.697,274.355 300.359,275.000 300.977 C 275.645 301.594,276.172 301.965,276.172 301.801 C 276.172 301.637,275.645 300.975,275.000 300.331 C 274.355 299.686,273.828 299.315,273.828 299.506 M333.203 302.978 L 332.227 303.548 333.203 303.288 C 334.291 302.998,334.584 302.814,334.342 302.571 C 334.252 302.481,333.739 302.664,333.203 302.978 " stroke="none" fill="#0679f4" fill-rule="evenodd"></path><path id="path4" d="M192.969 172.149 C 192.861 181.215,192.907 188.499,193.071 188.336 C 193.234 188.172,193.322 180.754,193.266 171.851 L 193.164 155.664 192.969 172.149 M206.727 171.950 C 206.680 180.907,206.772 188.317,206.934 188.417 C 207.200 188.582,207.195 176.475,206.921 161.523 C 206.862 158.301,206.775 162.993,206.727 171.950 M120.050 188.574 C 133.118 188.631,154.388 188.631,167.315 188.574 C 180.243 188.517,169.551 188.470,143.555 188.470 C 117.559 188.470,106.981 188.517,120.050 188.574 M231.769 188.574 C 245.052 188.631,266.673 188.631,279.815 188.574 C 292.958 188.517,282.090 188.470,255.664 188.470 C 229.238 188.470,218.485 188.517,231.769 188.574 M193.148 219.531 C 193.148 229.092,193.199 233.003,193.261 228.223 C 193.323 223.442,193.323 215.620,193.261 210.840 C 193.199 206.060,193.148 209.971,193.148 219.531 M206.820 219.531 C 206.820 229.092,206.871 233.003,206.933 228.223 C 206.995 223.442,206.995 215.620,206.933 210.840 C 206.871 206.060,206.820 209.971,206.820 219.531 " stroke="none" fill="#7ab8fb" fill-rule="evenodd"></path></g></svg>